# xmcd
#
# Track frame offsets:
#	150
#	4364
#	26305
#	47736
#	70840
#	91197
#	117496
#	135005
#
# Disc length: 2004 seconds
#
# Revision: 2
# Processed by: cddbd v1.5.2PL0 Copyright (c) Steve Scherf et al.
# Submitted via: audiograbber 1.83.01
#
DISCID=5b07d208
DTITLE=Reality Grey - Darkest Days Are Yet to Come
DYEAR=2005
DGENRE=Metal
TTITLE0=Intro
TTITLE1=Reality Grey
TTITLE2=Never Again
TTITLE3=The Cold Winter
TTITLE4=My Hell
TTITLE5=Betrayal
TTITLE6=Screaming Out
TTITLE7=F.U.
EXTD=
EXTT0=
EXTT1=
EXTT2=
EXTT3=
EXTT4=
EXTT5=
EXTT6=
EXTT7=
PLAYORDER=
